<?xml version="1.0" encoding="utf-8"?>
<!-- Generator: Adobe Illustrator 24.0.1, SVG Export Plug-In . SVG Version: 6.00 Build 0)  -->
<svg version="1.1" id="openai-horizontal" xmlns="http://www.w3.org/2000/svg" xmlns:xlink="http://www.w3.org/1999/xlink" x="0px"
	 y="0px" viewBox="0 0 230.2 29.5" style="enable-background:new 0 0 230.2 29.5;" xml:space="preserve">
<style type="text/css">
	.st0{font-family:'CircularStd-Book';}
	.st1{font-size:6.2033px;}
</style>
<path d="M40.7,7C40.7,7,40.7,7,40.7,7c-0.1,0-0.1,0-0.1,0C35.9,7,33,9.9,33,14.6v2.5c0,4.7,2.9,7.6,7.6,7.6c0,0,0,0,0.1,0s0,0,0.1,0
	c4.7,0,7.6-2.9,7.6-7.6v-2.5C48.3,9.9,45.4,7,40.7,7z M45,17.3c0,3.1-1.6,4.9-4.4,4.9c-2.8,0-4.4-1.8-4.4-4.9v-2.9
	c0-3.1,1.6-4.9,4.4-4.9c2.8,0,4.4,1.8,4.4,4.9V17.3z M85.6,11.5C85.6,11.5,85.5,11.5,85.6,11.5c-0.1,0-0.1,0-0.1,0
	c-1.8,0-3,0.6-3.7,1.8l-0.2,0.4v-1.8h-3v12.6h3.2v-7.5c0-1.8,0.9-2.8,2.6-2.8c1.6,0,2.5,1,2.5,2.7v7.5H90v-8.1
	C90,13.3,88.3,11.5,85.6,11.5L85.6,11.5z M120,9.7V7.3h-10.5v2.4h3.7V22h-3.7v2.4H120V22h-3.7V9.7C116.3,9.7,120,9.7,120,9.7z
	 M101.3,7.3L101.3,7.3H98l-6.1,17h3.4l1.2-3.6h6.7v0l1.2,3.6h3.4l-6.1-17L101.3,7.3L101.3,7.3z M97.2,18.3l2.6-8.1l2.6,8.1H97.2z
	 M57.8,11.5C57.8,11.5,57.7,11.5,57.8,11.5c-0.1,0-0.1,0-0.1,0c-1.6,0-3,0.7-3.7,1.8l-0.2,0.3v-1.7h-3v16.9h3.2v-5.9l0.2,0.3
	c0.7,1,2,1.6,3.6,1.6c0,0,0,0,0.1,0c0,0,0,0,0.1,0c2.6,0,5.2-1.7,5.2-5.5V17C63.1,14.3,61.4,11.5,57.8,11.5L57.8,11.5z M59.9,19
	c0,2-1.2,3.2-3,3.3c-1.7,0-2.9-1.4-2.9-3.2v-1.9c0-1.9,1.2-3.2,3-3.3c1.8,0,3,1.3,3,3.3C59.9,17.2,59.9,19,59.9,19z M70.9,11.5
	L70.9,11.5c-0.1,0-0.1,0-0.2,0s-0.1,0-0.2,0l0,0c-3.6,0-5.8,2.2-5.8,5.8v1.8c0,3.5,2.2,5.6,5.8,5.6c0.1,0,0.2,0,0.2,0
	c0.1,0,0.1,0,0.1,0c2.4,0,4.1-0.9,5.2-2.7L74,20.7c-0.7,1-1.7,1.8-3,1.8c-1.8,0-2.9-1.1-2.9-3v-0.5h8.4V17
	C76.5,13.6,74.3,11.5,70.9,11.5L70.9,11.5z M68.1,17v-0.3c0-2,0.9-3.1,2.7-3.2c1.7,0.1,2.7,1.2,2.7,3V17L68.1,17L68.1,17z"/>
<path d="M27.2,12.1c0.7-2,0.4-4.2-0.6-6c-1.6-2.8-4.9-4.2-8-3.6C17.2,0.9,15.1,0,13,0C9.8,0,6.9,2.1,5.9,5.2C3.8,5.6,2.1,6.9,1,8.7
	c-1.6,2.8-1.3,6.3,0.9,8.7c-0.7,2-0.4,4.2,0.6,6c1.6,2.8,4.8,4.3,8,3.6c1.4,1.6,3.4,2.5,5.5,2.5c3.2,0,6.1-2.1,7.1-5.1
	c2.1-0.4,3.9-1.7,4.9-3.6C29.8,18,29.4,14.5,27.2,12.1L27.2,12.1z M24.9,7c0.6,1.1,0.9,2.4,0.7,3.7c0,0-0.1-0.1-0.2-0.1l-5.9-3.4
	c-0.3-0.2-0.7-0.2-1,0l-6.9,4V8.3L17.4,5C20,3.4,23.4,4.4,24.9,7z M11.7,13.1l2.9-1.7l2.9,1.7v3.4l-2.9,1.7l-2.9-1.7V13.1z M13,1.9
	c1.3,0,2.6,0.4,3.5,1.3c0,0-0.1,0.1-0.2,0.1l-5.9,3.4C10.2,6.9,10,7.2,10,7.5v8L7.5,14V7.5C7.5,4.4,10,1.9,13,1.9L13,1.9z M2.7,9.7
	L2.7,9.7c0.6-1.1,1.7-2,2.9-2.4v7c0,0.4,0.2,0.7,0.5,0.8l6.9,4l-2.5,1.5l-5.7-3.3C2.1,15.7,1.2,12.3,2.7,9.7z M4.2,22.5L4.2,22.5
	c-0.7-1.1-0.9-2.4-0.7-3.7c0,0,0.1,0.1,0.2,0.1l5.9,3.4c0.3,0.2,0.7,0.2,1,0l6.9-4v2.9l-5.7,3.3C9.1,26.1,5.8,25.2,4.2,22.5
	L4.2,22.5z M16.1,27.6c-1.3,0-2.6-0.5-3.5-1.3c0,0,0.1-0.1,0.2-0.1l5.9-3.4c0.3-0.2,0.5-0.5,0.5-0.8V14l2.5,1.5v6.6
	C21.7,25.1,19.2,27.6,16.1,27.6L16.1,27.6z M26.5,19.8c-0.6,1.1-1.7,2-2.9,2.4v-7c0-0.4-0.2-0.7-0.5-0.8l0,0l-6.9-4L18.7,9l5.7,3.3
	C27.1,13.8,28,17.2,26.5,19.8L26.5,19.8z"/>
<g>
	<g>
		<path d="M171,10.7h-2.1V5.8h2.1V1.7h5.9v4.1h3.1v4.9h-3.1v5.7c0,0.9,0.4,1.3,1.4,1.3h1.7v5h-2.6c-3.7,0-6.5-1.6-6.5-6.4V10.7z"/>
		<path d="M188.9,5.6c2.4,0,4.1,1.1,5,2.6V5.8h5.9v16.9h-5.9v-2.3c-0.9,1.5-2.6,2.6-5,2.6c-4,0-7.2-3.3-7.2-8.7
			C181.8,8.9,184.9,5.6,188.9,5.6z M190.8,10.8c-1.7,0-3.1,1.2-3.1,3.5c0,2.3,1.4,3.5,3.1,3.5c1.7,0,3.1-1.2,3.1-3.5
			C193.9,12,192.5,10.8,190.8,10.8z"/>
		<path d="M203.2,0.5h5.9v22.3h-5.9V0.5z"/>
		<path d="M212.4,0.5h5.9v12l4.7-6.6h7.1l-6.6,8.5l6.8,8.4H223l-4.7-6.9v6.9h-5.9V0.5z"/>
	</g>
	<g>
		<text transform="matrix(0.9769 0 0 1 171.0016 29.3862)" class="st0 st1">governo digital</text>
	</g>
	<path d="M193.6,7.1C193.6,7.1,193.6,7.1,193.6,7.1C193.6,7.1,193.6,7.1,193.6,7.1C193.6,7.1,193.6,7.1,193.6,7.1z"/>
	<path d="M165.9,9.3c0-4.9-5.7-8.9-12.8-8.9c-7,0-12.8,4-12.8,8.9c0,4.5,4.9,8.3,11.2,8.8l0,0l8.9,4.8c-1.3-4.7-0.6-5.6-0.6-5.6
		l2.5-1.9c0.1-0.1,0.2-0.2,0.3-0.3l0.1-0.1l0,0C164.7,13.6,165.9,11.6,165.9,9.3z M145.6,3.9c1-0.5,2-0.9,2.9-1.4
		c0.4-0.2,0.9-0.2,1.3-0.3c1.6-0.2,3.2-0.3,4.8-0.5c0.2,0,0.4,0,0.5,0.1c2.5,0.9,5,1.8,7.5,2.6c0.2,0.1,0.3,0.2,0.4,0.4
		c0.1,0.3,0.1,0.6,0.3,0.9c0.1,0.3,0,0.3-0.2,0.3c-1.5,0-3,0-4.5,0c-0.3,0-0.5,0.1-0.7,0.4c-0.2,0.4-0.4,0.7-0.6,1
		c-0.1,0.2-0.2,0.3-0.4,0.3c-1.5,0-3,0-4.5,0c-0.2,0-0.3-0.1-0.4-0.2c-0.2-0.3-0.3-0.6-0.5-0.9c-0.1-0.2-0.1-0.3,0-0.4
		c0,0,0,0,0-0.1c0.4-0.8,1-1.1,1.9-1c0.4,0.1,0.9,0,1.4,0c0.4,0,0.7,0,1,0.2c0.4,0.2,0.8,0.1,1.1-0.3c0.2-0.3,0.2-0.8,0-1.1
		c-0.3-0.3-0.7-0.4-1.1-0.2c-0.3,0.2-0.6,0.2-0.9,0.2c-1,0-1.9,0-2.9,0c-0.2,0-0.4,0.1-0.5,0.3c-0.2,0.3-0.3,0.5-0.5,0.8
		c-0.1,0.1-0.1,0.2-0.2,0c-0.1-0.3-0.4-0.3-0.7-0.3c-1.7,0-3.4,0-5,0c-0.1,0-0.2,0-0.4,0C144.8,4.5,145.1,4.1,145.6,3.9z M162,14.3
		c-1.5,1-3,2.1-4.5,3.1c-0.3,0.2-0.3,0.3-0.2,0.6c0.4,0.8,0.9,1.6,1.3,2.5c0,0,0,0,0,0c-1.1-0.8-2.1-1.6-3.2-2.5
		c-0.1-0.1-0.1-0.2-0.1-0.4c0-0.6,0-1.3,0-1.9c0-0.1,0-0.2-0.1-0.2c-0.1,0-0.2,0.1-0.2,0.1c-0.6,0.4-1.2,0.9-1.7,1.3
		c-0.2,0.2-0.4,0.2-0.6,0c-1.1-1-2.2-1.9-3.3-2.9c-0.3-0.2-0.5-0.3-0.9-0.3c-1.2,0-2.5,0-3.7,0c-0.2,0-0.3,0-0.4-0.1
		c-0.1-0.1-0.2-0.3-0.1-0.5c0.2-0.2,0.3-0.4,0.4-0.6c0.3-0.5,0.5-0.5,1-0.2c0.4,0.2,0.9,0.1,1.2-0.2c0.3-0.4,0.2-0.9-0.2-1.2
		c-0.3-0.2-0.6-0.3-0.9-0.1c-0.3,0.2-0.6,0.2-1,0.2c-0.4,0-0.6,0.1-0.8,0.4c-0.2,0.3-0.4,0.6-0.6,0.8c-0.1,0.2-0.2,0.1-0.3,0
		c-0.5-0.7-1-1.3-1.5-2c-0.1-0.1-0.1-0.9,0-1c0.1-0.1,0.2-0.1,0.3-0.1c1.9,0,3.7,0,5.6,0c0.2,0,0.4,0.1,0.5,0.3
		c0.5,0.8,0.9,1.6,1.4,2.4c0.1,0.2,0.3,0.4,0.6,0.3c0.3-0.1,0.6,0.1,0.7,0.4c0.3,0.5,0.6,1.1,0.9,1.6c0.1,0.2,0.2,0.3,0.4,0.3
		c0.3,0,0.6,0,1,0c0.2,0,0.5,0.1,0.7,0.2c0.4,0.2,0.8,0.1,1.1-0.2c0.3-0.4,0.3-0.9,0-1.2c-0.3-0.3-0.7-0.4-1.1-0.2
		c-0.6,0.4-1.4,0.3-1.5-0.5c0-0.1-0.1-0.2-0.2-0.3c0.1-0.1,0.2,0,0.3,0c1.2,0,2.4,0,3.7,0c0.2,0,0.4,0.1,0.5,0.3
		c0.3,0.9,0.9,1.2,1.9,1.1c1.3-0.1,2.7,0,4,0c0.1,0,0.2,0,0.3,0C162.4,14,162.2,14.1,162,14.3z M163,12.4c-1.7,0-3.4,0-5.1,0
		c-0.2,0-0.3-0.1-0.4-0.2c-0.1-0.3-0.3-0.5-0.5-0.8c-0.1-0.3-0.3-0.4-0.6-0.4c-1.9,0-3.8,0-5.7,0c-0.3,0-0.5-0.1-0.6-0.4
		c-0.4-0.8-0.9-1.5-1.3-2.3c-0.1-0.2-0.3-0.3-0.6-0.3c-2,0-3.9,0-5.9,0c-0.4,0-0.4-0.1-0.3-0.4c0.1-0.6,0.6-0.9,1-1.3
		c0.1-0.1,0.2,0,0.3,0c1,0,2,0,2.9,0c0.9,0,1.9,0,2.8,0c0.3,0,0.4,0.1,0.6,0.3c0.4,0.8,0.9,1.6,1.4,2.4c0.1,0.2,0.3,0.3,0.6,0.3
		c1.9,0,3.8,0,5.7,0c0.3,0,0.4-0.1,0.5-0.3c0.2-0.4,0.4-0.8,0.6-1.1c0.1-0.2,0.2-0.2,0.4-0.2c1.4,0,2.8,0,4.2,0
		c0.2,0,0.4,0.1,0.4,0.3c0.1,0.5,0.2,1,0.4,1.4c0.1,0.2,0,0.3-0.2,0.3c-0.9,0-1.8,0-2.7,0c-0.2,0-0.3-0.1-0.5-0.2
		c-0.4-0.2-0.9-0.2-1.2,0.2c-0.3,0.3-0.3,0.8,0,1.1c0.3,0.3,0.8,0.4,1.2,0.2c0.2-0.1,0.3-0.2,0.5-0.1c1,0,1.9,0,2.9,0
		c0.1,0,0.2,0,0.3,0.1c0.1,0.1-0.1,0.2-0.1,0.3c-0.2,0.3-0.4,0.7-0.6,1C163.4,12.3,163.2,12.4,163,12.4z"/>
</g>
<rect x="131.7" y="0.2" width="0.8" height="29.2"/>
</svg>
